{"title":"The Machinist aka El maquinista [x264][DTS(5.1)] Multi_Sub.mkv","uid":5254707,"size":2408215651,"categoryP":"video","categoryS":"movies","magnet":"?xt=urn:btih:aa71ce60e4c68cbd1c802776e084c8549f59f321&amp;dn=The+Machinist+aka+El+maquinista+%5Bx264%5D%5BDTS%285.1%29%5D+Multi_Sub.mkv&amp;tr=udp%3A%2F%2Ftracker.openbittorrent.com%3A80&amp;tr=udp%3A%2F%2Fopen.demonii.com%3A1337&amp;tr=udp%3A%2F%2Ftracker.coppersurfer.tk%3A6969&amp;tr=udp%3A%2F%2Fexodus.desync.com%3A6969","seeders":1,"leechers":0,"uploader":"Zen_Bud","files":-1,"time":1262507861,"description":"General\nComplete name                    : The Machinist.mkv\nFormat                           : Matroska\nFile size                        : 2.24 GiB\nDuration                         : 1h 37mn\nOverall bit rate                 : 3 301 Kbps\n\n\nVideo\nID                               : 1\nFormat                           : AVC\nDuration                         : 1h 37mn\nBit rate                         : 1 725 Kbps\nNominal bit rate                 : 1 766 Kbps\nWidth                            : 718 pixels\nHeight                           : 436 pixels\nDisplay aspect ratio             : 2.35:1\nFrame rate                       : 25.000 fps\nResolution                       : 8 bits\nColorimetry                      : 4:2:0\nScan type                        : Progressive\nBits/(Pixel*Frame)               : 0.220\nStream size                      : 1.17 GiB (52%)\nWriting library                  : x264 core 79\n\n\nAudio\nID                               : 2\nFormat                           : DTS\nFormat/Info                      : Digital Theater Systems\nCodec ID                         : A_DTS\nDuration                         : 1h 37mn\nBit rate mode                    : Constant\nBit rate                         : 1 510 Kbps\nChannel(s)                       : 6 channels\nChannel positions                : Front: L C R, Surround: L R, LFE\nSampling rate                    : 48.0 KHz\nResolution                       : 24 bits\nStream size                      : 1.03 GiB (46%)\nLanguage                         : English\n\nText #1\nLanguage                         : Danish\n\nText #2\nLanguage                         : Swedish\n\nText #3\nLanguage                         : Norwegian\n\nText #4\nLanguage                         : Finnish\n\nText #5\nLanguage                         : Icelandic\n\n","torrent":{"xt":"urn:btih:aa71ce60e4c68cbd1c802776e084c8549f59f321","amp;dn":"The+Machinist+aka+El+maquinista+%5Bx264%5D%5BDTS%285.1%29%5D+Multi_Sub.mkv","amp;tr":["udp%3A%2F%2Ftracker.openbittorrent.com%3A80","udp%3A%2F%2Fopen.demonii.com%3A1337","udp%3A%2F%2Ftracker.coppersurfer.tk%3A6969","udp%3A%2F%2Fexodus.desync.com%3A6969"],"infoHash":"aa71ce60e4c68cbd1c802776e084c8549f59f321","infoHashBuffer":{"type":"Buffer","data":[170,113,206,96,228,198,140,189,28,128,39,118,224,132,200,84,159,89,243,33]},"announce":[],"urlList":[]}}